<?xml version="1.0" encoding="utf-8"?>
<!-- Generator: Adobe Illustrator 16.0.0, SVG Export Plug-In . SVG Version: 6.00 Build 0)  -->
<!DOCTYPE svg PUBLIC "-//W3C//DTD SVG 1.1//EN" "http://www.w3.org/Graphics/SVG/1.1/DTD/svg11.dtd">
<svg version="1.1" id="Layer_1" xmlns="http://www.w3.org/2000/svg" xmlns:xlink="http://www.w3.org/1999/xlink" x="0px" y="0px"
	 width="185px" height="30px" viewBox="0 0 185 30" enable-background="new 0 0 185 30" xml:space="preserve">
<g>
	<polygon id="path-1" fill="#FFFFFF" points="0,5.785 0,24.115 4.016,24.115 4.016,5.785 	"/>
</g>
<title>logo-midtrans-color copy 2</title>
<desc>Created with Sketch.</desc>
<g id="Midtrans">
	<g id="_x31_-Overview-alt" transform="translate(-135.000000, -15.000000)">
		<g id="header">
			<g id="logo-midtrans-color-copy-2" transform="translate(135.000000, 15.000000)">
				<g id="Group-3" transform="translate(0.000000, 5.763228)">
					<g id="Clip-2">
					</g>
				</g>
				<path id="Fill-1" fill="#89C7E8" d="M2.008,24.115C0.899,24.115,0,23.23,0,22.139V7.762C0,6.67,0.899,5.785,2.008,5.785
					S4.016,6.67,4.016,7.762v14.377C4.016,23.23,3.117,24.115,2.008,24.115"/>
				<path id="Fill-4" fill="#0BADDC" d="M26.102,24.115c-1.109,0-2.008-0.885-2.008-1.977V7.773c0-1.091,0.899-1.977,2.008-1.977
					s2.008,0.885,2.008,1.977v14.366C28.11,23.23,27.211,24.115,26.102,24.115"/>
				<path id="Fill-6" fill="#307FC2" d="M14.055,29.881c-1.109,0-2.008-0.885-2.008-1.977V2.007c0-1.091,0.899-1.977,2.008-1.977
					c1.108,0,2.008,0.885,2.008,1.977v25.897C16.063,28.996,15.164,29.881,14.055,29.881"/>
				<path id="Fill-12" fill="#012855" d="M171.02,21.842c-0.24-0.17-0.482-0.511-0.482-0.953c0-0.611,0.519-1.121,1.174-1.121
					c0.241,0,0.484,0.067,0.656,0.205c1.829,1.223,3.729,1.869,5.662,1.869c2.141,0,3.695-1.088,3.695-2.788v-0.067
					c0-1.768-2.105-2.447-4.453-3.093c-2.799-0.782-5.906-1.733-5.906-4.961v-0.069c0-3.025,2.556-5.031,6.077-5.031
					c1.899,0,3.973,0.579,5.697,1.496c0.347,0.205,0.657,0.578,0.657,1.087c0,0.613-0.519,1.123-1.174,1.123
					c-0.242,0-0.449-0.068-0.587-0.136c-1.521-0.85-3.142-1.36-4.662-1.36c-2.106,0-3.453,1.087-3.453,2.55v0.068
					c0,1.665,2.21,2.311,4.593,3.023c2.762,0.816,5.73,1.87,5.73,5.031v0.066c0,3.332-2.795,5.269-6.352,5.269
					C175.544,24.05,172.954,23.2,171.02,21.842"/>
				<path id="Fill-14" fill="#012855" d="M166.703,13.162c0-3.954-3.523-7.396-7.77-7.396c-4.297,0-7.781,3.429-7.781,7.658v9.056
					c0,0.781,0.614,1.385,1.406,1.385c0.795,0,1.372-0.604,1.372-1.385l-0.001-4.066V13.16c0-2.716,2.237-4.918,4.997-4.918
					c2.761,0,4.999,2.202,4.999,4.918v5.26v4.059c0,0.781,0.612,1.385,1.37,1.385c0.794,0,1.407-0.604,1.407-1.385
					C166.703,22.479,166.729,14.013,166.703,13.162"/>
				<path id="Fill-16" fill="#012855" d="M137.75,21.734c-2.418,0-4.324-1.015-4.324-3.224v-0.069c0-2.208,1.864-3.636,5.213-3.636
					c2.176,0,5.247,0.687,5.248,0.747v0.004C143.887,18.778,140.83,21.734,137.75,21.734L137.75,21.734z M146.408,12.971h-0.005
					C146.16,9.2,142.749,6,138.656,6h-1.191c-0.695,0-1.258,0.554-1.258,1.237c0,0.684,0.562,1.239,1.258,1.239h1.185
					c2.761,0,5.204,2.203,5.204,4.919v0.221c-1.588-0.441-3.211-0.748-5.49-0.748c-4.523,0-7.631,1.971-7.631,5.677v0.066
					c0,3.604,3.227,5.473,6.541,5.473c3.011,0,5.386-1.518,6.613-3.475v2.014c0,0.686,0.565,1.24,1.262,1.24
					c0.695,0,1.262-0.555,1.262-1.24L146.408,12.971z"/>
				<path id="Fill-18" fill="#012855" d="M130.229,7.234c0-0.684-0.563-1.239-1.259-1.239h-0.857l0,0h-0.002
					c-4.297,0-7.78,3.429-7.78,7.656v8.827c0,0.781,0.613,1.385,1.405,1.385c0.796,0,1.372-0.604,1.372-1.385l-0.001-4.066V13.39
					c0-2.716,2.238-4.918,4.998-4.918h0.008v0.001h0.857C129.666,8.473,130.229,7.918,130.229,7.234"/>
				<path id="Fill-20" fill="#012855" d="M115.918,7.171L115.918,7.171c0-0.639-0.525-1.156-1.175-1.156h-4.661V1.402
					c0-0.725-0.601-1.392-1.336-1.396c-0.766-0.006-1.324,0.607-1.324,1.325v17.724c0,3.567,2.175,4.961,5.041,4.961
					c1.037,0,1.866-0.17,2.625-0.475c0.449-0.17,0.76-0.544,0.76-1.02c0-0.613-0.518-1.122-1.139-1.122
					c-0.207,0-0.691,0.237-1.623,0.237c-1.796,0-3.004-0.782-3.004-2.922V8.327h4.661C115.393,8.327,115.918,7.81,115.918,7.171"/>
				<path id="Fill-10" fill="#012855" d="M101.928,22.555c0,0.748-0.586,1.325-1.312,1.325c-0.759,0-1.347-0.577-1.347-1.325V20.67
					c-1.451,2.107-3.557,3.414-6.837,3.414c-4.281,0-8.529-3.33-8.529-9.108v-0.068c0-5.743,4.248-9.142,8.529-9.142
					c3.315,0,5.457,1.272,6.837,3.244V1.326C99.27,0.579,99.821,0,100.582,0c0.76,0,1.346,0.579,1.346,1.326V22.555z M86.632,14.874
					v0.069c0,4.146,2.934,6.798,6.284,6.798c3.314,0,6.457-2.754,6.457-6.798v-0.069c0-4.043-3.143-6.762-6.457-6.762
					C89.462,8.111,86.632,10.626,86.632,14.874L86.632,14.874z"/>
				<path id="Fill-8" fill="#012855" d="M76.795,7.079c0-0.714,0.587-1.325,1.312-1.325c0.759,0,1.348,0.578,1.348,1.325v15.476
					c0,0.749-0.554,1.325-1.313,1.325s-1.346-0.576-1.346-1.325V7.079z"/>
				<path id="Fill-22" fill="#012855" d="M63.841,5.753c-2.545,0-4.791,1.26-6.133,3.178c-1.334-1.909-3.553-3.165-6.09-3.165
					c-4.111,0-7.445,3.281-7.445,7.328v9.461c0,0.748,0.585,1.325,1.346,1.325c0.76,0,1.313-0.577,1.313-1.325l-0.002-9.711
					c0-2.602,2.141-4.708,4.784-4.708c2.64,0,4.783,2.106,4.783,4.708l-0.001,8.627l0,0v0.004c0,0.723,0.595,1.309,1.33,1.309
					c0.734,0,1.33-0.586,1.33-1.309l-0.004-8.644c0-2.6,2.143-4.708,4.784-4.708s4.783,2.107,4.783,4.708v9.712
					c0,0.748,0.586,1.324,1.312,1.324c0.759,0,1.347-0.576,1.347-1.324l0.008-9.449C71.286,8.92,67.782,5.753,63.841,5.753"/>
			</g>
		</g>
	</g>
</g>
</svg>
